<?xml version="1.0" encoding="UTF-8" standalone="no"?>
<!-- Created with Inkscape (http://www.inkscape.org/) -->

<svg
   xmlns:dc="http://purl.org/dc/elements/1.1/"
   xmlns:cc="http://creativecommons.org/ns#"
   xmlns:rdf="http://www.w3.org/1999/02/22-rdf-syntax-ns#"
   xmlns:svg="http://www.w3.org/2000/svg"
   xmlns="http://www.w3.org/2000/svg"
   version="1.1"
   width="384"
   height="376"
   id="svg3067">
  <metadata
     id="metadata3073">
    <rdf:RDF>
      <cc:Work
         rdf:about="">
        <dc:format>image/svg+xml</dc:format>
        <dc:type
           rdf:resource="http://purl.org/dc/dcmitype/StillImage" />
        <dc:title></dc:title>
      </cc:Work>
    </rdf:RDF>
  </metadata>
  <defs
     id="defs3071" />
  <path
     d="m 121.67031,238.27597 c 2.07862,32.82623 0.0511,43.29706 8.16768,108.99632 65.18307,24.50062 114.22533,11.42757 156.59419,-17.1803 C 159.3764,273.4137 163.83947,264.27235 121.67031,238.27597 z"
     id="path3077"
     style="fill:#231f20;fill-opacity:1;stroke:#231f20;stroke-width:1px;stroke-linecap:butt;stroke-linejoin:miter;stroke-opacity:1" />
  <path
     d="M 190,256 172.5,216.31089 129.37822,221 155,186 129.37822,151 172.5,155.68911 190,116 207.5,155.68911 250.62178,151 225,186 250.62178,221 207.5,216.31089 z"
     id="path3875"
     style="fill:#0096ff;fill-opacity:1;fill-rule:nonzero;stroke:none" />
  <path
     d="m 201.10747,271.31323 c 29.46766,14.61298 37.5219,21.60428 98.47742,47.42475 53.8097,-44.19989 67.00923,-93.20826 63.41852,-144.2047 -112.61273,81.69439 -118.29784,73.25858 -161.89594,96.77995 z"
     id="path3877"
     style="fill:#231f20;fill-opacity:1;stroke:#231f20;stroke-width:1px;stroke-linecap:butt;stroke-linejoin:miter;stroke-opacity:1" />
  <path
     d="M 269.43715,219.03727 C 296.8262,200.82401 306.90796,197.34449 359.7469,157.46569 348.37353,88.765181 312.5308,52.829868 266.57123,30.441294 281.01428,168.81397 270.8661,169.51952 269.43715,219.03727 z"
     id="path3879"
     style="fill:#231f20;fill-opacity:1;stroke:#231f20;stroke-width:1px;stroke-linecap:butt;stroke-linejoin:miter;stroke-opacity:1" />
  <path
     d="M 258.32968,133.72404 C 256.25106,100.8978 258.27859,90.42698 250.16201,24.727716 184.97893,0.2270884 135.93668,13.300147 93.567817,41.908015 220.62359,98.586305 216.16053,107.72766 258.32968,133.72404 z"
     id="path3881"
     style="fill:#231f20;fill-opacity:1;stroke:#231f20;stroke-width:1px;stroke-linecap:butt;stroke-linejoin:miter;stroke-opacity:1" />
  <path
     d="M 178.89253,100.68678 C 149.42486,86.073796 141.37063,79.082493 80.415107,53.262026 26.605401,97.461915 13.405877,146.47028 16.996585,197.46672 129.60931,115.77234 135.29443,124.20814 178.89253,100.68678 z"
     id="path3883"
     style="fill:#231f20;fill-opacity:1;stroke:#231f20;stroke-width:1px;stroke-linecap:butt;stroke-linejoin:miter;stroke-opacity:1" />
  <path
     d="M 110.56285,152.96274 C 83.173796,171.176 73.092035,174.65551 20.253093,214.53431 31.626466,283.23483 67.469193,319.17013 113.42876,341.55871 98.985714,203.18604 109.13389,202.48048 110.56285,152.96274 z"
     id="path3885"
     style="fill:#231f20;fill-opacity:1;stroke:#231f20;stroke-width:1px;stroke-linecap:butt;stroke-linejoin:miter;stroke-opacity:1" />
</svg>
